<svg width="202" height="310" viewBox="0 0 202 310" fill="none" xmlns="http://www.w3.org/2000/svg">
<path d="M1 47.2H16.3846V62.6H1V47.2Z" fill="#E15B4A"/>
<path d="M16.3846 47.2H31.7692V62.6H16.3846V47.2Z" fill="#E15B4A"/>
<path d="M31.7692 47.2H47.1538V62.6H31.7692V47.2Z" fill="#E15B4A"/>
<path d="M16.3846 31.8H31.7692V47.2H16.3846V31.8Z" fill="#619B9B"/>
<path d="M16.3846 16.4H31.7692V31.8H16.3846V16.4Z" fill="#619B9B"/>
<path d="M31.7692 1H47.1538V16.4H31.7692V1Z" fill="#619B9B"/>
<path d="M31.7692 31.8H47.1538V47.2H31.7692V31.8Z" fill="#DFDFDD"/>
<path d="M31.7692 16.4H47.1538V31.8H31.7692V16.4Z" fill="#303334"/>
<path d="M47.1538 1H62.5385V16.4H47.1538V1Z" fill="#DFDFDD"/>
<path d="M47.1538 16.4H62.5385V31.8H47.1538V16.4Z" fill="#DFDFDD"/>
<path d="M47.1538 31.8H62.5385V47.2H47.1538V31.8Z" fill="#DFDFDD"/>
<path d="M47.1538 47.2H62.5385V62.6H47.1538V47.2Z" fill="#DFDFDD"/>
<path d="M47.1538 62.6H62.5385V78H47.1538V62.6Z" fill="#DFDFDD"/>
<path d="M47.1538 78H62.5385V93.4H47.1538V78Z" fill="#619B9B"/>
<path d="M47.1538 93.4H62.5385V108.8H47.1538V93.4Z" fill="#619B9B"/>
<path d="M47.1538 108.8H62.5385V124.2H47.1538V108.8Z" fill="#DFDFDD"/>
<path d="M47.1538 124.2H62.5385V139.6H47.1538V124.2Z" fill="#DFDFDD"/>
<path d="M93.3077 124.2H108.692V139.6H93.3077V124.2Z" fill="#DFDFDD"/>
<path d="M77.9231 139.6H93.3077V155H77.9231V139.6Z" fill="#DFDFDD"/>
<path d="M31.7692 155H47.1538V170.4H31.7692V155Z" fill="#619B9B"/>
<path d="M31.7692 185.8H47.1538V201.2H31.7692V185.8Z" fill="#DFDFDD"/>
<path d="M31.7692 201.2H47.1538V216.6H31.7692V201.2Z" fill="#DFDFDD"/>
<path d="M31.7692 216.6H47.1538V232H31.7692V216.6Z" fill="#DFDFDD"/>
<path d="M31.7692 232H47.1538V247.4H31.7692V232Z" fill="#DFDFDD"/>
<path d="M93.3077 155H108.692V170.4H93.3077V155Z" fill="#DFDFDD"/>
<path d="M93.3077 170.4H108.692V185.8H93.3077V170.4Z" fill="#DFDFDD"/>
<path d="M93.3077 185.8H108.692V201.2H93.3077V185.8Z" fill="#DFDFDD"/>
<path d="M93.3077 201.2H108.692V216.6H93.3077V201.2Z" fill="#DFDFDD"/>
<path d="M93.3077 216.6H108.692V232H93.3077V216.6Z" fill="#DFDFDD"/>
<path d="M108.692 139.6H124.077V155H108.692V139.6Z" fill="#DFDFDD"/>
<path d="M62.5385 155H77.9231V170.4H62.5385V155Z" fill="#619B9B"/>
<path d="M62.5385 170.4H77.9231V185.8H62.5385V170.4Z" fill="#DFDFDD"/>
<path d="M62.5385 185.8H77.9231V201.2H62.5385V185.8Z" fill="#DFDFDD"/>
<path d="M62.5385 201.2H77.9231V216.6H62.5385V201.2Z" fill="#DFDFDD"/>
<path d="M62.5385 216.6H77.9231V232H62.5385V216.6Z" fill="#DFDFDD"/>
<path d="M62.5385 232H77.9231V247.4H62.5385V232Z" fill="#DFDFDD"/>
<path d="M62.5385 247.4H77.9231V262.8H62.5385V247.4Z" fill="#619B9B"/>
<path d="M124.077 155H139.462V170.4H124.077V155Z" fill="#DFDFDD"/>
<path d="M124.077 170.4H139.462V185.8H124.077V170.4Z" fill="#DFDFDD"/>
<path d="M124.077 185.8H139.462V201.2H124.077V185.8Z" fill="#DFDFDD"/>
<path d="M124.077 201.2H139.462V216.6H124.077V201.2Z" fill="#DFDFDD"/>
<path d="M124.077 216.6H139.462V232H124.077V216.6Z" fill="#DFDFDD"/>
<path d="M124.077 232H139.462V247.4H124.077V232Z" fill="#619B9B"/>
<path d="M108.692 124.2H124.077V139.6H108.692V124.2Z" fill="#DFDFDD"/>
<path d="M93.3077 139.6H108.692V155H93.3077V139.6Z" fill="#DFDFDD"/>
<path d="M47.1538 155H62.5385V170.4H47.1538V155Z" fill="#619B9B"/>
<path d="M47.1538 170.4H62.5385V185.8H47.1538V170.4Z" fill="#DFDFDD"/>
<path d="M31.7692 170.4H47.1538V185.8H31.7692V170.4Z" fill="#DFDFDD"/>
<path d="M47.1538 185.8H62.5385V201.2H47.1538V185.8Z" fill="#DFDFDD"/>
<path d="M47.1538 201.2H62.5385V216.6H47.1538V201.2Z" fill="#DFDFDD"/>
<path d="M47.1538 216.6H62.5385V232H47.1538V216.6Z" fill="#DFDFDD"/>
<path d="M47.1538 232H62.5385V247.4H47.1538V232Z" fill="#DFDFDD"/>
<path d="M47.1538 247.4H62.5385V262.8H47.1538V247.4Z" fill="#E15B4A"/>
<path d="M31.7692 262.8H47.1538V278.2H31.7692V262.8Z" fill="#E15B4A"/>
<path d="M16.3846 262.8H31.7692V278.2H16.3846V262.8Z" fill="#E15B4A"/>
<path d="M108.692 155H124.077V170.4H108.692V155Z" fill="#DFDFDD"/>
<path d="M108.692 170.4H124.077V185.8H108.692V170.4Z" fill="#DFDFDD"/>
<path d="M108.692 185.8H124.077V201.2H108.692V185.8Z" fill="#DFDFDD"/>
<path d="M108.692 201.2H124.077V216.6H108.692V201.2Z" fill="#DFDFDD"/>
<path d="M108.692 216.6H124.077V232H108.692V216.6Z" fill="#DFDFDD"/>
<path d="M108.692 232H124.077V247.4H108.692V232Z" fill="#DFDFDD"/>
<path d="M108.692 247.4H124.077V262.8H108.692V247.4Z" fill="#E15B4A"/>
<path d="M124.077 139.6H139.462V155H124.077V139.6Z" fill="#DFDFDD"/>
<path d="M77.9231 155H93.3077V170.4H77.9231V155Z" fill="#DFDFDD"/>
<path d="M77.9231 170.4H93.3077V185.8H77.9231V170.4Z" fill="#DFDFDD"/>
<path d="M77.9231 185.8H93.3077V201.2H77.9231V185.8Z" fill="#DFDFDD"/>
<path d="M77.9231 201.2H93.3077V216.6H77.9231V201.2Z" fill="#DFDFDD"/>
<path d="M77.9231 216.6H93.3077V232H77.9231V216.6Z" fill="#DFDFDD"/>
<path d="M77.9231 232H93.3077V247.4H77.9231V232Z" fill="#DFDFDD"/>
<path d="M77.9231 247.4H93.3077V262.8H77.9231V247.4Z" fill="#619B9B"/>
<path d="M93.3077 232H108.692V247.4H93.3077V232Z" fill="#E15B4A"/>
<path d="M93.3077 262.8H108.692V278.2H93.3077V262.8Z" fill="#E15B4A"/>
<path d="M93.3077 247.4H108.692V262.8H93.3077V247.4Z" fill="#E15B4A"/>
<path d="M93.3077 278.2H108.692V293.6H93.3077V278.2Z" fill="#E15B4A"/>
<path d="M77.9231 293.6H93.3077V309H77.9231V293.6Z" fill="#E15B4A"/>
<path d="M77.9231 278.2H93.3077V293.6H77.9231V278.2Z" fill="#E15B4A"/>
<path d="M62.5385 293.6H77.9231V309H62.5385V293.6Z" fill="#E15B4A"/>
<path d="M47.1538 293.6H62.5385V309H47.1538V293.6Z" fill="#E15B4A"/>
<path d="M139.462 155H154.846V170.4H139.462V155Z" fill="#DFDFDD"/>
<path d="M139.462 170.4H154.846V185.8H139.462V170.4Z" fill="#DFDFDD"/>
<path d="M139.462 185.8H154.846V201.2H139.462V185.8Z" fill="#DFDFDD"/>
<path d="M170.231 185.8H185.615V201.2H170.231V185.8Z" fill="#DFDFDD"/>
<path d="M170.231 201.2H185.615V216.6H170.231V201.2Z" fill="#DFDFDD"/>
<path d="M170.231 216.6H185.615V232H170.231V216.6Z" fill="#B4BFCB"/>
<path d="M139.462 201.2H154.846V216.6H139.462V201.2Z" fill="#DFDFDD"/>
<path d="M139.462 216.6H154.846V232H139.462V216.6Z" fill="#DFDFDD"/>
<path d="M154.846 170.4H170.231V185.8H154.846V170.4Z" fill="#DFDFDD"/>
<path d="M154.846 185.8H170.231V201.2H154.846V185.8Z" fill="#DFDFDD"/>
<path d="M185.615 185.8H201V201.2H185.615V185.8Z" fill="#DFDFDD"/>
<path d="M154.846 201.2H170.231V216.6H154.846V201.2Z" fill="#DFDFDD"/>
<path d="M154.846 216.6H170.231V232H154.846V216.6Z" fill="#B4BFCB"/>
<path d="M31.7692 108.8H47.1538V124.2H31.7692V108.8Z" fill="#619B9B"/>
<path d="M31.7692 124.2H47.1538V139.6H31.7692V124.2Z" fill="#DFDFDD"/>
<path d="M16.3846 139.6H31.7692V155H16.3846V139.6Z" fill="#619B9B"/>
<path d="M77.9231 124.2H93.3077V139.6H77.9231V124.2Z" fill="#DFDFDD"/>
<path d="M62.5385 139.6H77.9231V155H62.5385V139.6Z" fill="#DFDFDD"/>
<path d="M16.3846 155H31.7692V170.4H16.3846V155Z" fill="#DFDFDD"/>
<path d="M16.3846 170.4H31.7692V185.8H16.3846V170.4Z" fill="#DFDFDD"/>
<path d="M16.3846 185.8H31.7692V201.2H16.3846V185.8Z" fill="#DFDFDD"/>
<path d="M16.3846 201.2H31.7692V216.6H16.3846V201.2Z" fill="#DFDFDD"/>
<path d="M62.5385 16.4H77.9231V31.8H62.5385V16.4Z" fill="#DFDFDD"/>
<path d="M62.5385 31.8H77.9231V47.2H62.5385V31.8Z" fill="#DFDFDD"/>
<path d="M62.5385 47.2H77.9231V62.6H62.5385V47.2Z" fill="#DFDFDD"/>
<path d="M62.5385 62.6H77.9231V78H62.5385V62.6Z" fill="#619B9B"/>
<path d="M62.5385 78H77.9231V93.4H62.5385V78Z" fill="#619B9B"/>
<path d="M62.5385 93.4H77.9231V108.8H62.5385V93.4Z" fill="#619B9B"/>
<path d="M62.5385 108.8H77.9231V124.2H62.5385V108.8Z" fill="#DFDFDD"/>
<path d="M77.9231 108.8H93.3077V124.2H77.9231V108.8Z" fill="#E15B4A"/>
<path d="M93.3077 93.4H108.692V108.8H93.3077V93.4Z" fill="#E15B4A"/>
<path d="M93.3077 78H108.692V93.4H93.3077V78Z" fill="#E15B4A"/>
<path d="M93.3077 62.6H108.692V78H93.3077V62.6Z" fill="#E15B4A"/>
<path d="M108.692 47.2H124.077V62.6H108.692V47.2Z" fill="#E15B4A"/>
<path d="M108.692 31.8H124.077V47.2H108.692V31.8Z" fill="#E15B4A"/>
<path d="M108.692 93.4H124.077V108.8H108.692V93.4Z" fill="#E15B4A"/>
<path d="M108.692 78H124.077V93.4H108.692V78Z" fill="#E15B4A"/>
<path d="M124.077 78H139.462V93.4H124.077V78Z" fill="#E15B4A"/>
<path d="M62.5385 124.2H77.9231V139.6H62.5385V124.2Z" fill="#E15B4A"/>
<path d="M47.1538 139.6H62.5385V155H47.1538V139.6Z" fill="#E15B4A"/>
<path d="M31.7692 139.6H47.1538V155H31.7692V139.6Z" fill="#E15B4A"/>
<path d="M16.3846 124.2H31.7692V139.6H16.3846V124.2Z" fill="#E15B4A"/>
<path d="M16.3846 47.2H1V62.6H16.3846M16.3846 47.2V62.6M16.3846 47.2H31.7692M16.3846 47.2V31.8M16.3846 62.6H31.7692M31.7692 47.2V62.6M31.7692 47.2H47.1538M31.7692 47.2V31.8M31.7692 62.6H47.1538M47.1538 47.2V62.6M47.1538 47.2V31.8M47.1538 47.2H62.5385M47.1538 62.6H62.5385M47.1538 62.6V78M16.3846 31.8H31.7692M16.3846 31.8V16.4H31.7692M31.7692 31.8V16.4M31.7692 31.8H47.1538M31.7692 16.4H47.1538M31.7692 16.4V1H47.1538M47.1538 1V16.4M47.1538 1H62.5385V16.4M47.1538 16.4V31.8M47.1538 16.4H62.5385M47.1538 31.8H62.5385M62.5385 16.4V31.8M62.5385 16.4H77.9231V31.8M62.5385 31.8V47.2M62.5385 31.8H77.9231M62.5385 47.2V62.6M62.5385 47.2H77.9231M62.5385 62.6V78M62.5385 62.6H77.9231M62.5385 78H47.1538M62.5385 78V93.4M62.5385 78H77.9231M47.1538 78V93.4M62.5385 93.4H47.1538M62.5385 93.4V108.8M62.5385 93.4H77.9231M47.1538 93.4V108.8M62.5385 108.8H47.1538M62.5385 108.8V124.2M62.5385 108.8H77.9231M47.1538 108.8V124.2M47.1538 108.8H31.7692V124.2M62.5385 124.2H47.1538M62.5385 124.2V139.6M62.5385 124.2H77.9231M47.1538 124.2V139.6M47.1538 124.2H31.7692M62.5385 139.6H47.1538M62.5385 139.6H77.9231M62.5385 139.6V155M47.1538 139.6H31.7692M47.1538 139.6V155M93.3077 124.2H108.692M93.3077 124.2V139.6M93.3077 124.2H77.9231M93.3077 124.2V108.8M108.692 124.2V139.6M108.692 124.2H124.077V139.6M108.692 139.6H93.3077M108.692 139.6H124.077M108.692 139.6V155M93.3077 139.6H77.9231M93.3077 139.6V155M77.9231 139.6V155M77.9231 139.6V124.2M93.3077 155H77.9231M93.3077 155H108.692M93.3077 155V170.4M77.9231 155H62.5385M77.9231 155V170.4M31.7692 155H47.1538M31.7692 155V170.4M31.7692 155V139.6M31.7692 155H16.3846M47.1538 155V170.4M47.1538 155H62.5385M47.1538 170.4H31.7692M47.1538 170.4H62.5385M47.1538 170.4V185.8M31.7692 170.4V185.8M31.7692 170.4H16.3846M31.7692 185.8H47.1538M31.7692 185.8V201.2M31.7692 185.8H16.3846M47.1538 185.8V201.2M47.1538 185.8H62.5385M47.1538 201.2H31.7692M47.1538 201.2V216.6M47.1538 201.2H62.5385M31.7692 201.2V216.6M31.7692 201.2H16.3846M47.1538 216.6H31.7692M47.1538 216.6V232M47.1538 216.6H62.5385M31.7692 216.6V232M31.7692 216.6H16.3846V201.2M47.1538 232H31.7692M47.1538 232V247.4M47.1538 232H62.5385M31.7692 232V247.4H47.1538M47.1538 247.4H62.5385M47.1538 247.4V262.8M108.692 155V170.4M108.692 155H124.077M108.692 170.4H93.3077M108.692 170.4V185.8M108.692 170.4H124.077M93.3077 170.4V185.8M93.3077 170.4H77.9231M108.692 185.8H93.3077M108.692 185.8V201.2M108.692 185.8H124.077M93.3077 185.8V201.2M93.3077 185.8H77.9231M108.692 201.2H93.3077M108.692 201.2V216.6M108.692 201.2H124.077M93.3077 201.2V216.6M93.3077 201.2H77.9231M108.692 216.6H93.3077M108.692 216.6V232M108.692 216.6H124.077M93.3077 216.6V232M93.3077 216.6H77.9231M108.692 232H93.3077M108.692 232H124.077M108.692 232V247.4M93.3077 232H77.9231M93.3077 232V247.4M124.077 139.6V155M124.077 139.6H139.462V155M124.077 155H139.462M124.077 155V170.4M62.5385 155V170.4M77.9231 170.4H62.5385M77.9231 170.4V185.8M62.5385 170.4V185.8M77.9231 185.8H62.5385M77.9231 185.8V201.2M62.5385 185.8V201.2M77.9231 201.2H62.5385M77.9231 201.2V216.6M62.5385 201.2V216.6M77.9231 216.6H62.5385M77.9231 216.6V232M62.5385 216.6V232M77.9231 232H62.5385M77.9231 232V247.4M62.5385 232V247.4M77.9231 247.4H62.5385M77.9231 247.4V262.8M77.9231 247.4H93.3077M62.5385 247.4V262.8M77.9231 262.8H62.5385M77.9231 262.8H93.3077M62.5385 262.8H47.1538M139.462 155V170.4M139.462 155H154.846V170.4M139.462 170.4H124.077M139.462 170.4V185.8M139.462 170.4H154.846M124.077 170.4V185.8M139.462 185.8H124.077M139.462 185.8V201.2M139.462 185.8H154.846M124.077 185.8V201.2M139.462 201.2H124.077M139.462 201.2V216.6M139.462 201.2H154.846M124.077 201.2V216.6M139.462 216.6H124.077M139.462 216.6V232M139.462 216.6H154.846M124.077 216.6V232M139.462 232H124.077M139.462 232V247.4H124.077M139.462 232H154.846M124.077 232V247.4M124.077 247.4H108.692M124.077 247.4V262.8H108.692M47.1538 262.8H31.7692M47.1538 262.8V278.2H31.7692M31.7692 262.8V278.2M31.7692 262.8H16.3846V278.2H31.7692M108.692 247.4V262.8M108.692 247.4H93.3077M108.692 262.8H93.3077M108.692 262.8V278.2M93.3077 247.4V262.8M93.3077 262.8V278.2M108.692 278.2H93.3077M108.692 278.2V293.6H93.3077M93.3077 278.2V293.6M93.3077 278.2H77.9231V293.6M93.3077 293.6H77.9231M93.3077 293.6V309H77.9231M77.9231 293.6V309M77.9231 293.6H62.5385M77.9231 309H62.5385M62.5385 293.6V309M62.5385 293.6H47.1538V309H62.5385M154.846 170.4V185.8M154.846 170.4H170.231V185.8M154.846 185.8V201.2M154.846 185.8H170.231M154.846 201.2V216.6M154.846 201.2H170.231M170.231 185.8H185.615M170.231 185.8V201.2M185.615 185.8V201.2M185.615 185.8H201V201.2H185.615M185.615 201.2H170.231M185.615 201.2V216.6M170.231 201.2V216.6M185.615 216.6H170.231M185.615 216.6V232H170.231M170.231 216.6V232M170.231 216.6H154.846M170.231 232H154.846M154.846 216.6V232M31.7692 124.2V139.6M31.7692 124.2H16.3846V139.6M31.7692 139.6H16.3846M16.3846 139.6V155M16.3846 155V170.4M77.9231 124.2V108.8M16.3846 170.4V185.8M16.3846 185.8V201.2M77.9231 31.8V47.2M77.9231 47.2V62.6M77.9231 62.6V78M77.9231 78V93.4M77.9231 93.4V108.8M77.9231 108.8H93.3077M93.3077 108.8H108.692M93.3077 108.8V93.4M93.3077 93.4H108.692M93.3077 93.4V78M108.692 93.4V108.8M108.692 93.4V78M108.692 93.4H124.077M108.692 108.8H124.077V93.4M93.3077 78H108.692M93.3077 78V62.6H108.692M108.692 78V62.6M108.692 78H124.077M108.692 62.6H124.077V47.2M108.692 62.6V47.2M108.692 47.2H124.077M108.692 47.2V31.8H124.077V47.2M124.077 93.4V78M124.077 93.4H139.462V78H124.077" stroke="black" stroke-width="0.1"/>
</svg>
