<svg width="1082" height="1668" viewBox="0 0 1082 1668" fill="none" xmlns="http://www.w3.org/2000/svg">
<path d="M1 251.016H84.1177V334.355H1V251.016Z" fill="#E15B4A"/>
<path d="M84.1177 251.016H167.235V334.355H84.1177V251.016Z" fill="#E15B4A"/>
<path d="M167.235 251.016H250.353V334.355H167.235V251.016Z" fill="#E15B4A"/>
<path d="M84.1177 167.677H167.235V251.016H84.1177V167.677Z" fill="#619B9B"/>
<path d="M84.1177 84.3387H167.235V167.677H84.1177V84.3387Z" fill="#619B9B"/>
<path d="M167.235 1H250.353V84.3387H167.235V1Z" fill="#619B9B"/>
<path d="M167.235 167.677H250.353V251.016H167.235V167.677Z" fill="#DFDFDD"/>
<path d="M167.235 84.3387H250.353V167.677H167.235V84.3387Z" fill="#303334"/>
<path d="M250.353 1H333.471V84.3387H250.353V1Z" fill="#DFDFDD"/>
<path d="M250.353 84.3387H333.471V167.677H250.353V84.3387Z" fill="#DFDFDD"/>
<path d="M250.353 167.677H333.471V251.016H250.353V167.677Z" fill="#DFDFDD"/>
<path d="M250.353 251.016H333.471V334.355H250.353V251.016Z" fill="#DFDFDD"/>
<path d="M250.353 334.355H333.471V417.694H250.353V334.355Z" fill="#DFDFDD"/>
<path d="M250.353 417.694H333.471V501.032H250.353V417.694Z" fill="#619B9B"/>
<path d="M250.353 501.032H333.471V584.371H250.353V501.032Z" fill="#619B9B"/>
<path d="M250.353 584.371H333.471V667.71H250.353V584.371Z" fill="#DFDFDD"/>
<path d="M250.353 667.71H333.471V751.049H250.353V667.71Z" fill="#DFDFDD"/>
<path d="M499.706 667.71H582.824V751.049H499.706V667.71Z" fill="#DFDFDD"/>
<path d="M416.588 751.049H499.706V834.387H416.588V751.049Z" fill="#DFDFDD"/>
<path d="M167.235 834.387H250.353V917.726H167.235V834.387Z" fill="#619B9B"/>
<path d="M167.235 1001.06H250.353V1084.4H167.235V1001.06Z" fill="#DFDFDD"/>
<path d="M167.235 1084.4H250.353V1167.74H167.235V1084.4Z" fill="#DFDFDD"/>
<path d="M167.235 1167.74H250.353V1251.08H167.235V1167.74Z" fill="#DFDFDD"/>
<path d="M167.235 1251.08H250.353V1334.42H167.235V1251.08Z" fill="#DFDFDD"/>
<path d="M499.706 834.387H582.824V917.726H499.706V834.387Z" fill="#DFDFDD"/>
<path d="M499.706 917.726H582.824V1001.06H499.706V917.726Z" fill="#DFDFDD"/>
<path d="M499.706 1001.06H582.824V1084.4H499.706V1001.06Z" fill="#DFDFDD"/>
<path d="M499.706 1084.4H582.824V1167.74H499.706V1084.4Z" fill="#DFDFDD"/>
<path d="M499.706 1167.74H582.824V1251.08H499.706V1167.74Z" fill="#DFDFDD"/>
<path d="M582.824 751.049H665.942V834.387H582.824V751.049Z" fill="#DFDFDD"/>
<path d="M333.471 834.387H416.588V917.726H333.471V834.387Z" fill="#619B9B"/>
<path d="M333.471 917.726H416.588V1001.06H333.471V917.726Z" fill="#DFDFDD"/>
<path d="M333.471 1001.06H416.588V1084.4H333.471V1001.06Z" fill="#DFDFDD"/>
<path d="M333.471 1084.4H416.588V1167.74H333.471V1084.4Z" fill="#DFDFDD"/>
<path d="M333.471 1167.74H416.588V1251.08H333.471V1167.74Z" fill="#DFDFDD"/>
<path d="M333.471 1251.08H416.588V1334.42H333.471V1251.08Z" fill="#DFDFDD"/>
<path d="M333.471 1334.42H416.588V1417.76H333.471V1334.42Z" fill="#619B9B"/>
<path d="M665.942 834.387H749.059V917.726H665.942V834.387Z" fill="#DFDFDD"/>
<path d="M665.942 917.726H749.059V1001.06H665.942V917.726Z" fill="#DFDFDD"/>
<path d="M665.942 1001.06H749.059V1084.4H665.942V1001.06Z" fill="#DFDFDD"/>
<path d="M665.942 1084.4H749.059V1167.74H665.942V1084.4Z" fill="#DFDFDD"/>
<path d="M665.942 1167.74H749.059V1251.08H665.942V1167.74Z" fill="#DFDFDD"/>
<path d="M665.942 1251.08H749.059V1334.42H665.942V1251.08Z" fill="#619B9B"/>
<path d="M582.824 667.71H665.942V751.049H582.824V667.71Z" fill="#DFDFDD"/>
<path d="M499.706 751.049H582.824V834.387H499.706V751.049Z" fill="#DFDFDD"/>
<path d="M250.353 834.387H333.471V917.726H250.353V834.387Z" fill="#619B9B"/>
<path d="M250.353 917.726H333.471V1001.06H250.353V917.726Z" fill="#DFDFDD"/>
<path d="M167.235 917.726H250.353V1001.06H167.235V917.726Z" fill="#DFDFDD"/>
<path d="M250.353 1001.06H333.471V1084.4H250.353V1001.06Z" fill="#DFDFDD"/>
<path d="M250.353 1084.4H333.471V1167.74H250.353V1084.4Z" fill="#DFDFDD"/>
<path d="M250.353 1167.74H333.471V1251.08H250.353V1167.74Z" fill="#DFDFDD"/>
<path d="M250.353 1251.08H333.471V1334.42H250.353V1251.08Z" fill="#DFDFDD"/>
<path d="M250.353 1334.42H333.471V1417.76H250.353V1334.42Z" fill="#E15B4A"/>
<path d="M167.235 1417.76H250.353V1501.1H167.235V1417.76Z" fill="#E15B4A"/>
<path d="M84.1177 1417.76H167.235V1501.1H84.1177V1417.76Z" fill="#E15B4A"/>
<path d="M582.824 834.387H665.942V917.726H582.824V834.387Z" fill="#DFDFDD"/>
<path d="M582.824 917.726H665.942V1001.06H582.824V917.726Z" fill="#DFDFDD"/>
<path d="M582.824 1001.06H665.942V1084.4H582.824V1001.06Z" fill="#DFDFDD"/>
<path d="M582.824 1084.4H665.942V1167.74H582.824V1084.4Z" fill="#DFDFDD"/>
<path d="M582.824 1167.74H665.942V1251.08H582.824V1167.74Z" fill="#DFDFDD"/>
<path d="M582.824 1251.08H665.942V1334.42H582.824V1251.08Z" fill="#DFDFDD"/>
<path d="M582.824 1334.42H665.942V1417.76H582.824V1334.42Z" fill="#E15B4A"/>
<path d="M665.942 751.049H749.059V834.387H665.942V751.049Z" fill="#DFDFDD"/>
<path d="M416.588 834.387H499.706V917.726H416.588V834.387Z" fill="#DFDFDD"/>
<path d="M416.588 917.726H499.706V1001.06H416.588V917.726Z" fill="#DFDFDD"/>
<path d="M416.588 1001.06H499.706V1084.4H416.588V1001.06Z" fill="#DFDFDD"/>
<path d="M416.588 1084.4H499.706V1167.74H416.588V1084.4Z" fill="#DFDFDD"/>
<path d="M416.588 1167.74H499.706V1251.08H416.588V1167.74Z" fill="#DFDFDD"/>
<path d="M416.588 1251.08H499.706V1334.42H416.588V1251.08Z" fill="#DFDFDD"/>
<path d="M416.588 1334.42H499.706V1417.76H416.588V1334.42Z" fill="#619B9B"/>
<path d="M499.706 1251.08H582.824V1334.42H499.706V1251.08Z" fill="#E15B4A"/>
<path d="M499.706 1417.76H582.824V1501.1H499.706V1417.76Z" fill="#E15B4A"/>
<path d="M499.706 1334.42H582.824V1417.76H499.706V1334.42Z" fill="#E15B4A"/>
<path d="M499.706 1501.1H582.824V1584.44H499.706V1501.1Z" fill="#E15B4A"/>
<path d="M416.588 1584.44H499.706V1667.77H416.588V1584.44Z" fill="#E15B4A"/>
<path d="M416.588 1501.1H499.706V1584.44H416.588V1501.1Z" fill="#E15B4A"/>
<path d="M333.471 1584.44H416.588V1667.77H333.471V1584.44Z" fill="#E15B4A"/>
<path d="M250.353 1584.44H333.471V1667.77H250.353V1584.44Z" fill="#E15B4A"/>
<path d="M749.059 834.387H832.177V917.726H749.059V834.387Z" fill="#DFDFDD"/>
<path d="M749.059 917.726H832.177V1001.06H749.059V917.726Z" fill="#DFDFDD"/>
<path d="M749.059 1001.06H832.177V1084.4H749.059V1001.06Z" fill="#DFDFDD"/>
<path d="M915.295 1001.06H998.412V1084.4H915.295V1001.06Z" fill="#DFDFDD"/>
<path d="M915.295 1084.4H998.412V1167.74H915.295V1084.4Z" fill="#DFDFDD"/>
<path d="M915.295 1167.74H998.412V1251.08H915.295V1167.74Z" fill="#B4BFCB"/>
<path d="M749.059 1084.4H832.177V1167.74H749.059V1084.4Z" fill="#DFDFDD"/>
<path d="M749.059 1167.74H832.177V1251.08H749.059V1167.74Z" fill="#DFDFDD"/>
<path d="M832.177 917.726H915.295V1001.06H832.177V917.726Z" fill="#DFDFDD"/>
<path d="M832.177 1001.06H915.295V1084.4H832.177V1001.06Z" fill="#DFDFDD"/>
<path d="M998.412 1001.06H1081.53V1084.4H998.412V1001.06Z" fill="#DFDFDD"/>
<path d="M832.177 1084.4H915.295V1167.74H832.177V1084.4Z" fill="#DFDFDD"/>
<path d="M832.177 1167.74H915.295V1251.08H832.177V1167.74Z" fill="#B4BFCB"/>
<path d="M167.235 584.371H250.353V667.71H167.235V584.371Z" fill="#619B9B"/>
<path d="M167.235 667.71H250.353V751.049H167.235V667.71Z" fill="#DFDFDD"/>
<path d="M84.1177 751.049H167.235V834.387H84.1177V751.049Z" fill="#619B9B"/>
<path d="M416.588 667.71H499.706V751.049H416.588V667.71Z" fill="#DFDFDD"/>
<path d="M333.471 751.049H416.588V834.387H333.471V751.049Z" fill="#DFDFDD"/>
<path d="M84.1177 834.387H167.235V917.726H84.1177V834.387Z" fill="#DFDFDD"/>
<path d="M84.1177 917.726H167.235V1001.06H84.1177V917.726Z" fill="#DFDFDD"/>
<path d="M84.1177 1001.06H167.235V1084.4H84.1177V1001.06Z" fill="#DFDFDD"/>
<path d="M84.1177 1084.4H167.235V1167.74H84.1177V1084.4Z" fill="#DFDFDD"/>
<path d="M333.471 84.3387H416.588V167.677H333.471V84.3387Z" fill="#DFDFDD"/>
<path d="M333.471 167.677H416.588V251.016H333.471V167.677Z" fill="#DFDFDD"/>
<path d="M333.471 251.016H416.588V334.355H333.471V251.016Z" fill="#DFDFDD"/>
<path d="M333.471 334.355H416.588V417.694H333.471V334.355Z" fill="#619B9B"/>
<path d="M333.471 417.694H416.588V501.032H333.471V417.694Z" fill="#619B9B"/>
<path d="M333.471 501.032H416.588V584.371H333.471V501.032Z" fill="#619B9B"/>
<path d="M333.471 584.371H416.588V667.71H333.471V584.371Z" fill="#DFDFDD"/>
<path d="M416.588 584.371H499.706V667.71H416.588V584.371Z" fill="#E15B4A"/>
<path d="M499.706 501.032H582.824V584.371H499.706V501.032Z" fill="#E15B4A"/>
<path d="M499.706 417.694H582.824V501.032H499.706V417.694Z" fill="#E15B4A"/>
<path d="M499.706 334.355H582.824V417.694H499.706V334.355Z" fill="#E15B4A"/>
<path d="M582.824 251.016H665.942V334.355H582.824V251.016Z" fill="#E15B4A"/>
<path d="M582.824 167.677H665.942V251.016H582.824V167.677Z" fill="#E15B4A"/>
<path d="M582.824 501.032H665.942V584.371H582.824V501.032Z" fill="#E15B4A"/>
<path d="M582.824 417.694H665.942V501.032H582.824V417.694Z" fill="#E15B4A"/>
<path d="M665.942 417.694H749.059V501.032H665.942V417.694Z" fill="#E15B4A"/>
<path d="M333.471 667.71H416.588V751.049H333.471V667.71Z" fill="#E15B4A"/>
<path d="M250.353 751.049H333.471V834.387H250.353V751.049Z" fill="#E15B4A"/>
<path d="M167.235 751.049H250.353V834.387H167.235V751.049Z" fill="#E15B4A"/>
<path d="M84.1177 667.71H167.235V751.049H84.1177V667.71Z" fill="#E15B4A"/>
<path d="M84.1177 251.016H1V334.355H84.1177M84.1177 251.016V334.355M84.1177 251.016H167.235M84.1177 251.016V167.677M84.1177 334.355H167.235M167.235 251.016V334.355M167.235 251.016H250.353M167.235 251.016V167.677M167.235 334.355H250.353M250.353 251.016V334.355M250.353 251.016V167.677M250.353 251.016H333.471M250.353 334.355H333.471M250.353 334.355V417.694M84.1177 167.677H167.235M84.1177 167.677V84.3387H167.235M167.235 167.677V84.3387M167.235 167.677H250.353M167.235 84.3387H250.353M167.235 84.3387V1H250.353M250.353 1V84.3387M250.353 1H333.471V84.3387M250.353 84.3387V167.677M250.353 84.3387H333.471M250.353 167.677H333.471M333.471 84.3387V167.677M333.471 84.3387H416.588V167.677M333.471 167.677V251.016M333.471 167.677H416.588M333.471 251.016V334.355M333.471 251.016H416.588M333.471 334.355V417.694M333.471 334.355H416.588M333.471 417.694H250.353M333.471 417.694V501.032M333.471 417.694H416.588M250.353 417.694V501.032M333.471 501.032H250.353M333.471 501.032V584.371M333.471 501.032H416.588M250.353 501.032V584.371M333.471 584.371H250.353M333.471 584.371V667.71M333.471 584.371H416.588M250.353 584.371V667.71M250.353 584.371H167.235V667.71M333.471 667.71H250.353M333.471 667.71V751.049M333.471 667.71H416.588M250.353 667.71V751.049M250.353 667.71H167.235M333.471 751.049H250.353M333.471 751.049H416.588M333.471 751.049V834.387M250.353 751.049H167.235M250.353 751.049V834.387M499.706 667.71H582.824M499.706 667.71V751.049M499.706 667.71H416.588M499.706 667.71V584.371M582.824 667.71V751.049M582.824 667.71H665.942V751.049M582.824 751.049H499.706M582.824 751.049H665.942M582.824 751.049V834.387M499.706 751.049H416.588M499.706 751.049V834.387M416.588 751.049V834.387M416.588 751.049V667.71M499.706 834.387H416.588M499.706 834.387H582.824M499.706 834.387V917.726M416.588 834.387H333.471M416.588 834.387V917.726M167.235 834.387H250.353M167.235 834.387V917.726M167.235 834.387V751.049M167.235 834.387H84.1177M250.353 834.387V917.726M250.353 834.387H333.471M250.353 917.726H167.235M250.353 917.726H333.471M250.353 917.726V1001.06M167.235 917.726V1001.06M167.235 917.726H84.1177M167.235 1001.06H250.353M167.235 1001.06V1084.4M167.235 1001.06H84.1177M250.353 1001.06V1084.4M250.353 1001.06H333.471M250.353 1084.4H167.235M250.353 1084.4V1167.74M250.353 1084.4H333.471M167.235 1084.4V1167.74M167.235 1084.4H84.1177M250.353 1167.74H167.235M250.353 1167.74V1251.08M250.353 1167.74H333.471M167.235 1167.74V1251.08M167.235 1167.74H84.1177V1084.4M250.353 1251.08H167.235M250.353 1251.08V1334.42M250.353 1251.08H333.471M167.235 1251.08V1334.42H250.353M250.353 1334.42H333.471M250.353 1334.42V1417.76M582.824 834.387V917.726M582.824 834.387H665.942M582.824 917.726H499.706M582.824 917.726V1001.06M582.824 917.726H665.942M499.706 917.726V1001.06M499.706 917.726H416.588M582.824 1001.06H499.706M582.824 1001.06V1084.4M582.824 1001.06H665.942M499.706 1001.06V1084.4M499.706 1001.06H416.588M582.824 1084.4H499.706M582.824 1084.4V1167.74M582.824 1084.4H665.942M499.706 1084.4V1167.74M499.706 1084.4H416.588M582.824 1167.74H499.706M582.824 1167.74V1251.08M582.824 1167.74H665.942M499.706 1167.74V1251.08M499.706 1167.74H416.588M582.824 1251.08H499.706M582.824 1251.08H665.942M582.824 1251.08V1334.42M499.706 1251.08H416.588M499.706 1251.08V1334.42M665.942 751.049V834.387M665.942 751.049H749.059V834.387M665.942 834.387H749.059M665.942 834.387V917.726M333.471 834.387V917.726M416.588 917.726H333.471M416.588 917.726V1001.06M333.471 917.726V1001.06M416.588 1001.06H333.471M416.588 1001.06V1084.4M333.471 1001.06V1084.4M416.588 1084.4H333.471M416.588 1084.4V1167.74M333.471 1084.4V1167.74M416.588 1167.74H333.471M416.588 1167.74V1251.08M333.471 1167.74V1251.08M416.588 1251.08H333.471M416.588 1251.08V1334.42M333.471 1251.08V1334.42M416.588 1334.42H333.471M416.588 1334.42V1417.76M416.588 1334.42H499.706M333.471 1334.42V1417.76M416.588 1417.76H333.471M416.588 1417.76H499.706M333.471 1417.76H250.353M749.059 834.387V917.726M749.059 834.387H832.177V917.726M749.059 917.726H665.942M749.059 917.726V1001.06M749.059 917.726H832.177M665.942 917.726V1001.06M749.059 1001.06H665.942M749.059 1001.06V1084.4M749.059 1001.06H832.177M665.942 1001.06V1084.4M749.059 1084.4H665.942M749.059 1084.4V1167.74M749.059 1084.4H832.177M665.942 1084.4V1167.74M749.059 1167.74H665.942M749.059 1167.74V1251.08M749.059 1167.74H832.177M665.942 1167.74V1251.08M749.059 1251.08H665.942M749.059 1251.08V1334.42H665.942M749.059 1251.08H832.177M665.942 1251.08V1334.42M665.942 1334.42H582.824M665.942 1334.42V1417.76H582.824M250.353 1417.76H167.235M250.353 1417.76V1501.1H167.235M167.235 1417.76V1501.1M167.235 1417.76H84.1177V1501.1H167.235M582.824 1334.42V1417.76M582.824 1334.42H499.706M582.824 1417.76H499.706M582.824 1417.76V1501.1M499.706 1334.42V1417.76M499.706 1417.76V1501.1M582.824 1501.1H499.706M582.824 1501.1V1584.44H499.706M499.706 1501.1V1584.44M499.706 1501.1H416.588V1584.44M499.706 1584.44H416.588M499.706 1584.44V1667.77H416.588M416.588 1584.44V1667.77M416.588 1584.44H333.471M416.588 1667.77H333.471M333.471 1584.44V1667.77M333.471 1584.44H250.353V1667.77H333.471M832.177 917.726V1001.06M832.177 917.726H915.295V1001.06M832.177 1001.06V1084.4M832.177 1001.06H915.295M832.177 1084.4V1167.74M832.177 1084.4H915.295M915.295 1001.06H998.412M915.295 1001.06V1084.4M998.412 1001.06V1084.4M998.412 1001.06H1081.53V1084.4H998.412M998.412 1084.4H915.295M998.412 1084.4V1167.74M915.295 1084.4V1167.74M998.412 1167.74H915.295M998.412 1167.74V1251.08H915.295M915.295 1167.74V1251.08M915.295 1167.74H832.177M915.295 1251.08H832.177M832.177 1167.74V1251.08M167.235 667.71V751.049M167.235 667.71H84.1177V751.049M167.235 751.049H84.1177M84.1177 751.049V834.387M84.1177 834.387V917.726M416.588 667.71V584.371M84.1177 917.726V1001.06M84.1177 1001.06V1084.4M416.588 167.677V251.016M416.588 251.016V334.355M416.588 334.355V417.694M416.588 417.694V501.032M416.588 501.032V584.371M416.588 584.371H499.706M499.706 584.371H582.824M499.706 584.371V501.032M499.706 501.032H582.824M499.706 501.032V417.694M582.824 501.032V584.371M582.824 501.032V417.694M582.824 501.032H665.942M582.824 584.371H665.942V501.032M499.706 417.694H582.824M499.706 417.694V334.355H582.824M582.824 417.694V334.355M582.824 417.694H665.942M582.824 334.355H665.942V251.016M582.824 334.355V251.016M582.824 251.016H665.942M582.824 251.016V167.677H665.942V251.016M665.942 501.032V417.694M665.942 501.032H749.059V417.694H665.942" stroke="black" stroke-width="0.1"/>
</svg>
